<mxfile host="app.diagrams.net" agent="Mozilla/5.0 (Windows NT 10.0; Win64; x64) AppleWebKit/537.36 (KHTML, like Gecko) Chrome/138.0.0.0 Safari/537.36" version="28.0.7">
  <diagram name="Page-1" id="7QFU5mV4ADdKodoRjjQw">
    <mxGraphModel dx="1426" dy="791" grid="1" gridSize="10" guides="1" tooltips="1" connect="1" arrows="1" fold="1" page="1" pageScale="1" pageWidth="1169" pageHeight="827" math="0" shadow="0">
      <root>
        <mxCell id="0" />
        <mxCell id="1" parent="0" />
        <mxCell id="DBbt-ugRHZg0O07pfJXq-1" value="&lt;font&gt;Data Sources&lt;/font&gt;" style="swimlane;whiteSpace=wrap;html=1;fillColor=#cdeb8b;strokeColor=#36393d;fontSize=15;" parent="1" vertex="1">
          <mxGeometry x="10" y="120" width="270" height="390" as="geometry" />
        </mxCell>
        <mxCell id="DBbt-ugRHZg0O07pfJXq-2" value="pearson_corr-matrix.csv" style="rounded=1;whiteSpace=wrap;html=1;fontSize=15;" parent="DBbt-ugRHZg0O07pfJXq-1" vertex="1">
          <mxGeometry x="10" y="40" width="250" height="60" as="geometry" />
        </mxCell>
        <mxCell id="DBbt-ugRHZg0O07pfJXq-3" value="spearman_corr_matrix.csv" style="rounded=1;whiteSpace=wrap;html=1;fontSize=15;" parent="DBbt-ugRHZg0O07pfJXq-1" vertex="1">
          <mxGeometry x="10" y="110" width="250" height="60" as="geometry" />
        </mxCell>
        <mxCell id="DBbt-ugRHZg0O07pfJXq-4" value="feature_importance_comparison.csv" style="rounded=1;whiteSpace=wrap;html=1;fontSize=15;" parent="DBbt-ugRHZg0O07pfJXq-1" vertex="1">
          <mxGeometry x="10" y="180" width="250" height="60" as="geometry" />
        </mxCell>
        <mxCell id="DBbt-ugRHZg0O07pfJXq-5" value="model_performance_comparsion.csv" style="rounded=1;whiteSpace=wrap;html=1;fontSize=15;" parent="DBbt-ugRHZg0O07pfJXq-1" vertex="1">
          <mxGeometry x="10" y="250" width="250" height="60" as="geometry" />
        </mxCell>
        <mxCell id="DBbt-ugRHZg0O07pfJXq-6" value="linear_regression_coefficients.csv" style="rounded=1;whiteSpace=wrap;html=1;fontSize=15;" parent="DBbt-ugRHZg0O07pfJXq-1" vertex="1">
          <mxGeometry x="10" y="320" width="250" height="60" as="geometry" />
        </mxCell>
        <mxCell id="DBbt-ugRHZg0O07pfJXq-7" value="" style="shape=note;whiteSpace=wrap;html=1;backgroundOutline=1;darkOpacity=0.05;fillColor=#d5e8d4;strokeColor=#82b366;fontSize=15;" parent="1" vertex="1">
          <mxGeometry x="350" y="83" width="350" height="510" as="geometry" />
        </mxCell>
        <mxCell id="DBbt-ugRHZg0O07pfJXq-8" value="&lt;font&gt;&lt;b&gt;LangChain + LangGraph Framework&lt;/b&gt;&lt;/font&gt;" style="text;html=1;align=center;verticalAlign=middle;whiteSpace=wrap;rounded=0;fontSize=15;" parent="1" vertex="1">
          <mxGeometry x="390" y="90" width="270" height="30" as="geometry" />
        </mxCell>
        <mxCell id="DBbt-ugRHZg0O07pfJXq-9" value="&lt;b&gt;MemorySaver&lt;/b&gt;&lt;br&gt;Context Tracking" style="rounded=1;whiteSpace=wrap;html=1;fontSize=15;" parent="1" vertex="1">
          <mxGeometry x="370" y="160" width="120" height="60" as="geometry" />
        </mxCell>
        <mxCell id="DBbt-ugRHZg0O07pfJXq-10" value="&lt;b&gt;Data Loader&lt;br&gt;&lt;/b&gt;CSV Processing" style="rounded=1;whiteSpace=wrap;html=1;fontSize=15;" parent="1" vertex="1">
          <mxGeometry x="550" y="160" width="120" height="60" as="geometry" />
        </mxCell>
        <mxCell id="DBbt-ugRHZg0O07pfJXq-11" value="&lt;b&gt;Multi-turn Dialogue Support&lt;br&gt;&lt;/b&gt;Conversation context &amp;amp; follow-up handling" style="rounded=1;whiteSpace=wrap;html=1;fontSize=15;" parent="1" vertex="1">
          <mxGeometry x="360" y="510" width="330" height="60" as="geometry" />
        </mxCell>
        <mxCell id="DBbt-ugRHZg0O07pfJXq-12" value="&lt;b&gt;Claude LLM&lt;br&gt;&lt;/b&gt;Evidence-grounded response generation" style="rounded=1;whiteSpace=wrap;html=1;fontSize=15;" parent="1" vertex="1">
          <mxGeometry x="415" y="430" width="220" height="60" as="geometry" />
        </mxCell>
        <mxCell id="DBbt-ugRHZg0O07pfJXq-13" value="&lt;b&gt;LangGraph Agent Node&lt;br&gt;&lt;/b&gt;1. Load CSVs as formatted strings&lt;br&gt;2. Populate QA prompt with structured data&lt;br&gt;3. Invoke Cluade LLM for response generation" style="rounded=0;whiteSpace=wrap;html=1;fontSize=15;" parent="1" vertex="1">
          <mxGeometry x="360" y="330" width="330" height="80" as="geometry" />
        </mxCell>
        <mxCell id="DBbt-ugRHZg0O07pfJXq-14" value="&lt;b&gt;Custom Prompt Template&lt;br&gt;&lt;/b&gt;Structured data injection:" style="rounded=1;whiteSpace=wrap;html=1;fontSize=15;" parent="1" vertex="1">
          <mxGeometry x="360" y="240" width="330" height="80" as="geometry" />
        </mxCell>
        <mxCell id="DBbt-ugRHZg0O07pfJXq-15" value="" style="rounded=1;whiteSpace=wrap;html=1;absoluteArcSize=1;arcSize=14;strokeWidth=2;fillColor=#dae8fc;strokeColor=#6c8ebf;fontSize=15;" parent="1" vertex="1">
          <mxGeometry x="795" y="53" width="345" height="570" as="geometry" />
        </mxCell>
        <mxCell id="DBbt-ugRHZg0O07pfJXq-16" value="&lt;font&gt;&lt;b&gt;Streamlit User Interface&lt;/b&gt;&lt;/font&gt;" style="text;html=1;align=center;verticalAlign=middle;whiteSpace=wrap;rounded=0;fontSize=15;" parent="1" vertex="1">
          <mxGeometry x="828.75" y="83" width="270" height="30" as="geometry" />
        </mxCell>
        <mxCell id="DBbt-ugRHZg0O07pfJXq-17" value="" style="rounded=1;whiteSpace=wrap;html=1;fontSize=15;" parent="1" vertex="1">
          <mxGeometry x="800" y="120" width="320" height="220" as="geometry" />
        </mxCell>
        <mxCell id="DBbt-ugRHZg0O07pfJXq-18" value="" style="rounded=1;whiteSpace=wrap;html=1;fontSize=15;" parent="1" vertex="1">
          <mxGeometry x="820" y="349" width="290" height="60" as="geometry" />
        </mxCell>
        <mxCell id="DBbt-ugRHZg0O07pfJXq-19" value="&lt;b&gt;&lt;font&gt;System Capabilities&lt;/font&gt;&lt;/b&gt;&lt;div&gt;&lt;ul&gt;&lt;li&gt;Evidence-traceable answers&lt;/li&gt;&lt;li&gt;Natural language interaction&lt;/li&gt;&lt;li&gt;Rapid data exploration&lt;/li&gt;&lt;li&gt;Policy-relevant recommendations&lt;/li&gt;&lt;li&gt;Real-time loading feedback&lt;/li&gt;&lt;/ul&gt;&lt;/div&gt;" style="rounded=1;whiteSpace=wrap;html=1;fontSize=15;" parent="1" vertex="1">
          <mxGeometry x="808" y="420" width="315" height="150" as="geometry" />
        </mxCell>
        <mxCell id="DBbt-ugRHZg0O07pfJXq-21" value="&lt;font&gt;&lt;b&gt;Chatbot-style Interface&lt;/b&gt;&lt;/font&gt;" style="text;html=1;align=center;verticalAlign=middle;whiteSpace=wrap;rounded=0;fontSize=15;" parent="1" vertex="1">
          <mxGeometry x="835" y="130" width="270" height="30" as="geometry" />
        </mxCell>
        <mxCell id="DBbt-ugRHZg0O07pfJXq-22" value="User: &quot;What are key Cholera predictors?&quot;" style="rounded=1;whiteSpace=wrap;html=1;fillColor=#bac8d3;strokeColor=#23445d;fontSize=15;" parent="1" vertex="1">
          <mxGeometry x="820" y="160" width="287.5" height="30" as="geometry" />
        </mxCell>
        <mxCell id="DBbt-ugRHZg0O07pfJXq-24" value="Assistant: &quot;Based on feature importance analysis&lt;div&gt;Water Access Index (0.847), Population Density (0.623)&lt;/div&gt;&lt;div&gt;&lt;span style=&quot;background-color: transparent; color: light-dark(rgb(0, 0, 0), rgb(255, 255, 255));&quot;&gt;Source: feature_importance_comparison.csv&lt;/span&gt;&lt;/div&gt;" style="rounded=1;whiteSpace=wrap;html=1;fontSize=15;" parent="1" vertex="1">
          <mxGeometry x="822.5" y="204" width="290" height="120" as="geometry" />
        </mxCell>
        <mxCell id="DBbt-ugRHZg0O07pfJXq-25" value="&lt;font&gt;&lt;b&gt;Free-form Input Box&lt;/b&gt;&lt;/font&gt;" style="text;html=1;align=center;verticalAlign=middle;whiteSpace=wrap;rounded=0;fontSize=15;" parent="1" vertex="1">
          <mxGeometry x="820" y="346" width="270" height="30" as="geometry" />
        </mxCell>
        <mxCell id="DBbt-ugRHZg0O07pfJXq-29" value="&quot;Ask me a question about Cholera&quot;" style="text;html=1;align=center;verticalAlign=middle;whiteSpace=wrap;rounded=0;fontSize=15;" parent="1" vertex="1">
          <mxGeometry x="858.75" y="370" width="210" height="40" as="geometry" />
        </mxCell>
        <mxCell id="DBbt-ugRHZg0O07pfJXq-32" value="" style="aspect=fixed;sketch=0;html=1;dashed=0;whitespace=wrap;verticalLabelPosition=bottom;verticalAlign=top;fillColor=#2875E2;strokeColor=#ffffff;points=[[0.005,0.63,0],[0.1,0.2,0],[0.9,0.2,0],[0.5,0,0],[0.995,0.63,0],[0.72,0.99,0],[0.5,1,0],[0.28,0.99,0]];shape=mxgraph.kubernetes.icon2;kubernetesLabel=1;prIcon=user;fontSize=15;" parent="1" vertex="1">
          <mxGeometry x="899.25" y="670" width="132.5" height="127.2" as="geometry" />
        </mxCell>
        <mxCell id="DBbt-ugRHZg0O07pfJXq-37" value="" style="endArrow=classic;html=1;rounded=0;exitX=1;exitY=0.5;exitDx=0;exitDy=0;entryX=0;entryY=0.456;entryDx=0;entryDy=0;entryPerimeter=0;strokeWidth=3;fontSize=15;" parent="1" source="DBbt-ugRHZg0O07pfJXq-1" target="DBbt-ugRHZg0O07pfJXq-7" edge="1">
          <mxGeometry width="50" height="50" relative="1" as="geometry">
            <mxPoint x="260" y="580" as="sourcePoint" />
            <mxPoint x="310" y="530" as="targetPoint" />
          </mxGeometry>
        </mxCell>
        <mxCell id="DBbt-ugRHZg0O07pfJXq-38" value="" style="endArrow=classic;html=1;rounded=0;exitX=0.996;exitY=0.321;exitDx=0;exitDy=0;exitPerimeter=0;strokeWidth=3;fontSize=15;" parent="1" source="DBbt-ugRHZg0O07pfJXq-7" edge="1">
          <mxGeometry width="50" height="50" relative="1" as="geometry">
            <mxPoint x="730" y="300" as="sourcePoint" />
            <mxPoint x="792" y="247" as="targetPoint" />
          </mxGeometry>
        </mxCell>
        <mxCell id="DBbt-ugRHZg0O07pfJXq-39" value="" style="endArrow=classic;html=1;rounded=0;exitX=0.996;exitY=0.321;exitDx=0;exitDy=0;exitPerimeter=0;strokeWidth=3;fontSize=15;entryX=0;entryY=0.609;entryDx=0;entryDy=0;entryPerimeter=0;" parent="1" edge="1" target="DBbt-ugRHZg0O07pfJXq-15">
          <mxGeometry width="50" height="50" relative="1" as="geometry">
            <mxPoint x="701" y="401" as="sourcePoint" />
            <mxPoint x="780" y="400" as="targetPoint" />
          </mxGeometry>
        </mxCell>
        <mxCell id="DBbt-ugRHZg0O07pfJXq-40" value="" style="endArrow=classic;html=1;rounded=0;exitX=0.004;exitY=0.708;exitDx=0;exitDy=0;exitPerimeter=0;strokeWidth=3;fontSize=15;entryX=1.003;entryY=0.731;entryDx=0;entryDy=0;entryPerimeter=0;" parent="1" source="DBbt-ugRHZg0O07pfJXq-15" edge="1" target="DBbt-ugRHZg0O07pfJXq-7">
          <mxGeometry width="50" height="50" relative="1" as="geometry">
            <mxPoint x="720" y="510" as="sourcePoint" />
            <mxPoint x="710" y="457" as="targetPoint" />
          </mxGeometry>
        </mxCell>
        <mxCell id="DBbt-ugRHZg0O07pfJXq-41" value="&lt;b&gt;&lt;font style=&quot;color: rgb(204, 102, 0);&quot;&gt;CSV Data Ingest&lt;/font&gt;&lt;/b&gt;" style="text;html=1;align=center;verticalAlign=middle;whiteSpace=wrap;rounded=0;fontSize=15;" parent="1" vertex="1">
          <mxGeometry x="280" y="265" width="60" height="30" as="geometry" />
        </mxCell>
        <mxCell id="DBbt-ugRHZg0O07pfJXq-42" value="&lt;b&gt;&lt;font style=&quot;color: rgb(255, 128, 0);&quot;&gt;Grounded Response&lt;/font&gt;&lt;/b&gt;" style="text;html=1;align=center;verticalAlign=middle;whiteSpace=wrap;rounded=0;fontSize=15;" parent="1" vertex="1">
          <mxGeometry x="715" y="204" width="60" height="30" as="geometry" />
        </mxCell>
        <mxCell id="DBbt-ugRHZg0O07pfJXq-43" value="&lt;b&gt;&lt;font style=&quot;color: rgb(255, 128, 0);&quot;&gt;User Query&lt;/font&gt;&lt;/b&gt;" style="text;html=1;align=center;verticalAlign=middle;whiteSpace=wrap;rounded=0;fontSize=15;" parent="1" vertex="1">
          <mxGeometry x="715" y="364" width="60" height="30" as="geometry" />
        </mxCell>
        <mxCell id="DBbt-ugRHZg0O07pfJXq-44" value="&lt;b&gt;&lt;font style=&quot;color: rgb(255, 128, 0);&quot;&gt;LLM Response&lt;/font&gt;&lt;/b&gt;" style="text;html=1;align=center;verticalAlign=middle;whiteSpace=wrap;rounded=0;fontSize=15;" parent="1" vertex="1">
          <mxGeometry x="720" y="470" width="60" height="30" as="geometry" />
        </mxCell>
        <mxCell id="DBbt-ugRHZg0O07pfJXq-45" value="" style="endArrow=classic;html=1;rounded=0;exitX=0.5;exitY=1;exitDx=0;exitDy=0;strokeWidth=7;fontSize=15;" parent="1" source="DBbt-ugRHZg0O07pfJXq-15" target="DBbt-ugRHZg0O07pfJXq-32" edge="1">
          <mxGeometry width="50" height="50" relative="1" as="geometry">
            <mxPoint x="810" y="720" as="sourcePoint" />
            <mxPoint x="860" y="670" as="targetPoint" />
          </mxGeometry>
        </mxCell>
      </root>
    </mxGraphModel>
  </diagram>
</mxfile>
